<svg xmlns="http://www.w3.org/2000/svg" width="327" height="327">
  <circle cx="163" cy="163" r="160" fill="#CFB53B" />
  <path
    d="M163.5 0C253.799 0 327 73.201 327 163.5S253.799 327 163.5 327 0 253.799 0 163.5 73.201 0 163.5 0zm-.367 16.293a40.147 40.147 0 00-1.12 6.304c-1.02 9.514-1.472 19.078-2.068 28.623-1.229 21.56-2.437 43.127-4.336 64.643-1.126 12.616-2.459 25.22-4.33 37.748-1.71 11.192-3.727 22.385-7.167 33.192-4.597.306-9.183.726-13.77 1.138-1.657-4.656-2.57-9.533-3.495-14.376-2.058-11.472-3.485-23.046-4.822-34.62-2.784-24.354-4.808-48.789-7.105-73.19-.368-3.622-.681-7.254-1.256-10.85-.532 1.573-.668 3.238-.917 4.871-.676 5.151-1.188 10.325-1.717 15.492-2.904 28.735-5.512 57.524-9.972 86.07-1.098 6.915-2.326 13.81-3.88 20.64-1.024 4.402-2.17 8.788-3.76 13.023-4.265 1.318-8.508 2.727-12.61 4.495-1.916-4.463-3.234-9.153-4.441-13.847-2.685-10.794-4.447-21.788-6.012-32.791-1.963-13.73-3.365-27.529-5.23-41.271-.542-3.545-.962-7.142-2.024-10.577l-.27-.048c-.51 1.682-.723 3.436-.997 5.169-1.313 9.5-2.195 19.056-3.125 28.602-2.735 29.386-5.094 58.809-7.326 88.234 16.168 6.136 31.153 15.279 44.187 26.627 23.535 20.579 51.07 45.948 67.148 72.606.29.025.394.838.71.214 9.226-18.194 19.445-30.54 34.348-44.592 12.98-12.239 26.542-23.528 40.449-33.637 10.393-7.549 24.725-16.66 36.746-21.207-1.568-21.14-3.293-42.27-5.086-63.393-.124-1.226-.249-2.451-.236-3.685l-.1.403c-.653-8.767-1.531-17.517-2.348-26.273-.808-8.062-1.577-16.131-2.71-24.155-.293-1.753-.475-3.548-1.104-5.223-1.28 3.91-1.693 8.034-2.31 12.086-2.336 17.767-4.1 35.616-7.091 53.292-1.39 8.194-2.978 16.373-5.27 24.37-.91 3.077-1.877 6.15-3.163 9.093-4.101-1.754-8.334-3.182-12.6-4.482-2.535-6.796-4.038-13.919-5.445-21.015-2.086-10.866-3.649-21.822-5.071-32.79-3.077-23.899-5.253-47.9-7.716-71.866-.388-3.603-.77-7.205-1.278-10.792-.194-1.188-.293-2.409-.728-3.542-.868 5.24-1.219 10.552-1.755 15.835-2.359 25.635-4.534 51.294-7.657 76.851-.81 6.543-1.685 13.082-2.722 19.592-1.168 6.965-2.284 13.988-4.556 20.694-4.587-.502-9.186-.84-13.782-1.182-3.478-10.963-5.514-22.319-7.234-33.672-3.518-24.056-5.302-48.323-6.872-72.568-.928-14.83-1.692-29.672-2.649-44.5-.423-5.566-.74-11.15-1.569-16.674-.179-1.046-.284-2.136-.786-3.089z" />
  </svg>