<?xml version="1.0" encoding="utf-8"?>
<!-- Generator: Adobe Illustrator 12.0.0, SVG Export Plug-In . SVG Version: 6.00 Build 51448)  -->
<!DOCTYPE svg PUBLIC "-//W3C//DTD SVG 1.1//EN" "http://www.w3.org/Graphics/SVG/1.1/DTD/svg11.dtd" [
	<!ENTITY ns_svg "http://www.w3.org/2000/svg">
	<!ENTITY ns_xlink "http://www.w3.org/1999/xlink">
]>
<svg  version="1.1" id="Ebene_1" xmlns="&ns_svg;" xmlns:xlink="&ns_xlink;" width="493.656" height="493.656"
	 viewBox="0 0 493.656 493.656" overflow="visible" enable-background="new 0 0 493.656 493.656" xml:space="preserve">
<path d="M460.865,214.036c-5.785-39.202-22.082-74.975-45.934-104.375V78.725h-30.705C354.605,54.346,318.39,37.695,278.66,31.833
	L246.827,0l-31.825,31.826c-39.75,5.855-75.985,22.509-105.62,46.899H78.725v30.878c-23.889,29.425-40.207,65.239-45.988,104.489
	L0,246.827L33.072,279.9c6.059,38.385,22.211,73.412,45.653,102.285v32.746h32.977c28.644,22.924,63.236,38.719,101.097,44.695
	l34.028,34.029l34.04-34.039c37.838-5.982,72.41-21.773,101.039-44.686h33.025v-32.805c23.404-28.848,39.535-63.832,45.596-102.172
	l33.129-33.127L460.865,214.036z M246.804,423.587c-98.137,0-177.693-79.557-177.693-177.694S148.667,68.2,246.804,68.2
	c98.137,0,177.694,79.557,177.694,177.694S344.941,423.587,246.804,423.587z"/>
<path fill="#EA5810" d="M130.956,414.931h-9.015c24.241,17.936,52.473,30.783,83.124,36.961l-6.493-6.492
	C173.979,439.41,151.136,428.955,130.956,414.931z M50.011,196.817c5.93-22.904,15.747-44.245,28.714-63.268v-13.811
	c-18.892,25.131-32.269,54.638-38.361,86.726L50.011,196.817z M453.234,206.405c-6.094-32.039-19.447-61.503-38.303-86.605v13.817
	c12.932,18.988,22.725,40.283,28.65,63.136L453.234,206.405z M40.807,287.634c6.287,31.195,19.479,59.887,37.918,84.414v-9.811
	c-13.502-19.809-23.588-42.129-29.427-66.113L40.807,287.634z M134.078,78.725c18.612-12.427,39.391-21.859,61.647-27.622
	l11.649-11.649c-32.597,6.188-62.524,19.902-87.913,39.271H134.078z M295.099,445.384l-6.496,6.496
	c30.627-6.182,58.838-19.025,83.064-36.949h-9.016C342.488,428.943,319.667,439.392,295.099,445.384z M414.931,362.169v9.818
	c18.402-24.5,31.574-53.15,37.859-84.297l-8.494,8.496C438.462,320.119,428.398,342.396,414.931,362.169z M297.947,51.119
	c22.232,5.765,42.99,15.19,61.584,27.605h14.615c-25.373-19.358-55.279-33.066-87.855-39.26L297.947,51.119z"/>
<path fill="#3F3F3F" d="M438.335,201.532c-5.873-24.338-16.262-46.915-30.232-66.792V85.552h-49.648
	c-19.508-13.442-41.561-23.457-65.283-29.184l-46.344-46.344l-46.328,46.329c-23.747,5.725-45.82,15.745-65.346,29.199H85.552
	v49.119c-14.007,19.912-24.419,42.535-30.296,66.925l-45.232,45.231l44.59,44.59c5.742,25.449,16.401,49.033,30.938,69.699v46.986
	h46.559c21.015,15.072,45.117,26.107,71.173,31.986l43.543,43.543l43.559-43.559c26.031-5.881,50.113-16.91,71.111-31.971h46.605
	v-47.055c14.5-20.631,25.139-44.172,30.877-69.568l44.652-44.653L438.335,201.532z M392.933,358.591v34.342h-34.619
	c-19.898,15.113-42.957,26.275-68.01,32.332l-43.477,43.479l-43.462-43.463c-25.076-6.053-48.157-17.221-68.071-32.348h-34.573
	v-34.281c-15.612-20.197-27.125-43.719-33.306-69.322l-42.503-42.502l41.934-41.934c6.026-26.547,17.77-50.923,33.875-71.758
	v-32.414h32.138c21.094-16.58,45.894-28.651,72.947-34.789l41.021-41.021l41.036,41.035c27.029,6.142,51.809,18.208,72.887,34.774
	h32.184v32.475c16.07,20.806,27.791,45.139,33.816,71.636l41.994,41.994l-42.566,42.565
	C420,314.945,408.509,338.425,392.933,358.591z"/>
<path fill="#F98F10" d="M387,125.9v-19.245h-19.086C374.736,112.595,381.115,119.03,387,125.9z M275.769,63.622L246.827,34.68
	l-28.933,28.933c9.42-1.482,19.073-2.26,28.909-2.26C256.66,61.353,266.332,62.134,275.769,63.622z M125.695,106.655h-19.04v19.189
	C112.528,118.995,118.891,112.579,125.695,106.655z M458.976,246.827l-29.898-29.898c1.486,9.438,2.268,19.109,2.268,28.965
	c0,10.637-0.912,21.059-2.639,31.204L458.976,246.827z M64.523,216.983L34.68,246.827l30.214,30.215
	c-1.722-10.127-2.631-20.531-2.631-31.149C62.263,236.058,63.041,226.403,64.523,216.983z M215.655,427.804l31.172,31.172
	l31.18-31.18c-10.145,1.727-20.566,2.639-31.204,2.639C236.187,430.435,225.782,429.527,215.655,427.804z M365.72,387H387v-21.111
	C380.49,373.486,373.371,380.546,365.72,387z M106.655,365.943V387h21.232C120.256,380.562,113.153,373.521,106.655,365.943z"/>
</svg>
