<?xml version="1.0" encoding="utf-8"?>
<!DOCTYPE svg PUBLIC "-//W3C//DTD SVG 1.0//EN" "http://www.w3.org/TR/2001/REC-SVG-20010904/DTD/svg10.dtd" [
	<!ENTITY ns_svg "http://www.w3.org/2000/svg">
	<!ENTITY ns_xlink "http://www.w3.org/1999/xlink">
]>
<svg  version="1.0" id="Ebene_1" xmlns="&ns_svg;" xmlns:xlink="&ns_xlink;" width="432.8" height="432.8"
	 viewBox="0 0 432.8 432.8" overflow="visible" enable-background="new 0 0 432.8 432.8" xml:space="preserve">
<path d="M384.526,80.167V48.231H352.58C315.39,18.078,268.009,0,216.399,0S117.41,18.078,80.22,48.231H48.32v31.878
	C18.113,117.316,0,164.739,0,216.4c0,51.66,18.113,99.084,48.32,136.291v31.746h31.735c37.215,30.233,84.659,48.363,136.344,48.363
	c51.686,0,99.129-18.13,136.345-48.363h31.782v-31.805C414.705,315.434,432.8,268.034,432.8,216.4S414.705,117.366,384.526,80.167z
	 M216.399,394.093c-98.137,0-177.693-79.556-177.693-177.693c0-98.137,79.556-177.694,177.693-177.694
	c98.138,0,177.693,79.557,177.693,177.694C394.093,314.538,314.537,394.093,216.399,394.093z"/>
<path fill="#89AAAF" d="M216.4,14.125c41.702,0,80.465,12.566,112.726,34.106h13.312C307.323,21.872,263.687,6.25,216.399,6.25
	S125.476,21.872,90.361,48.231h13.313C135.935,26.691,174.698,14.125,216.4,14.125z"/>
<path fill="#89AAAF" d="M384.526,90.307v12.817c22.178,32.565,35.148,71.905,35.148,114.276c0,42.371-12.971,81.711-35.148,114.276
	v10.817c26.385-35.124,42.023-78.781,42.023-126.094C426.55,169.088,410.911,125.43,384.526,90.307z"/>
<path fill="#89AAAF" d="M216.4,420.675c-43.058,0-82.98-13.398-115.849-36.238H90.189c35.144,26.438,78.845,42.113,126.21,42.113
	s91.066-15.675,126.211-42.113h-10.362C299.379,407.277,259.457,420.675,216.4,420.675z"/>
<path fill="#89AAAF" d="M48.32,342.555v-10.811C26.114,299.166,13.125,259.801,13.125,217.4s12.989-81.766,35.195-114.345V90.245
	C21.908,125.379,6.25,169.06,6.25,216.4S21.908,307.42,48.32,342.555z"/>
<path fill="#89AAAF" d="M76.251,96.351c6.206-7.238,12.963-13.989,20.206-20.189H76.251V96.351z"/>
<path fill="#89AAAF" d="M336.343,76.162c7.262,6.216,14.034,12.986,20.253,20.245V76.162H336.343z"/>
<path fill="#89AAAF" d="M336.499,356.506h20.097v-20.112C350.421,343.601,343.702,350.327,336.499,356.506z"/>
<path fill="#89AAAF" d="M76.251,336.449v20.058H96.3C89.116,350.342,82.413,343.635,76.251,336.449z"/>
<path fill="#3F3F3F" d="M377.699,104.246V55.058h-49.648C296.313,33.189,257.855,20.375,216.4,20.375
	c-41.457,0-79.915,12.814-111.651,34.683H55.147v49.119C32.613,136.211,19.375,175.258,19.375,217.4
	c0,42.142,13.238,81.188,35.772,113.223v46.987h46.559c32.306,23.169,71.904,36.815,114.693,36.815
	c42.789,0,82.386-13.646,114.693-36.815h46.606v-47.056c22.505-32.021,35.726-71.042,35.726-113.154
	S400.204,136.267,377.699,104.246z M362.529,329.097v33.343h-33.315c-31.194,24.133-70.324,38.502-112.814,38.502
	c-42.491,0-81.62-14.369-112.813-38.502H70.317v-33.282C46.211,297.973,31.859,258.866,31.859,216.4
	c0-42.465,14.353-81.573,38.458-112.758V70.228h33.441c31.166-24.052,70.229-38.369,112.641-38.369s81.476,14.317,112.642,38.369
	h33.488v33.475c24.078,31.175,38.412,70.259,38.412,112.697S386.607,297.922,362.529,329.097z"/>
</svg>
