<svg xmlns="http://www.w3.org/2000/svg" width="600" height="600" overflow="visible"><circle cx="282.223" cy="291.011" r="216.4"/><circle fill="#B2B2B2" cx="282.223" cy="291.011" r="210.15"/><path d="M462.756 414.72c23.813-34.969 37.741-77.212 37.741-122.709 0-45.499-13.928-87.74-37.741-122.709v-58.943h-59.488c-34.642-23.129-76.266-36.623-121.044-36.623-44.779 0-86.403 13.493-121.044 36.623h-59.438v58.87C77.897 204.212 63.95 246.481 63.95 292.011s13.947 87.8 37.792 122.782v56.58h56.084c35.294 24.526 78.163 38.913 124.397 38.913 46.235 0 89.102-14.387 124.397-38.913h56.136V414.72z"/><path fill="#3F3F3F" d="M443.522 405.166c22.505-32.021 35.726-71.042 35.726-113.154s-13.221-81.133-35.726-113.154V129.67h-49.648c-31.737-21.869-70.195-34.683-111.651-34.683-41.457 0-79.915 12.814-111.651 34.683H120.97v49.119c-22.534 32.034-35.772 71.081-35.772 113.223 0 42.142 13.238 81.188 35.772 113.223v46.987h46.559c32.306 23.169 71.904 36.815 114.693 36.815s82.386-13.646 114.693-36.815h46.606v-47.056z"/><path fill="#B2B2B2" d="M120.666 129.365h323.161v323.161H120.666z"/><circle cx="282.224" cy="291.011" r="177.042"/><radialGradient id="prefix__a" cx="282.224" cy="291.011" r="149.955" gradientUnits="userSpaceOnUse"><stop offset="0" stop-color="#b2b2b2"/><stop offset="1" stop-color="#666"/></radialGradient><circle fill="url(#prefix__a)" cx="282.223" cy="291.011" r="149.955"/></svg>