<svg xmlns="http://www.w3.org/2000/svg" width="600" height="600" overflow="visible">
    <circle cx="282.223" cy="291.011" r="216.4" />
    <circle fill="#B2B2B2" cx="282.223" cy="291.011" r="210.15" />
    <path
        d="M532.418 291.238l-34.819-34.82c-5.234-31.894-17.374-61.463-34.843-87.116v-58.943h-59.488c-25.265-16.868-54.245-28.603-85.452-33.725L283.032 41.85l-34.474 34.473c-31.942 4.948-61.595 16.82-87.379 34.035h-59.438v58.87c-17.85 26.188-30.152 56.458-35.21 89.123l-32.887 32.886 32.622 32.623c4.879 33.355 17.296 64.264 35.475 90.933v56.58h56.084c27.035 18.787 58.517 31.614 92.548 36.594l32.658 32.657 32.937-32.935c33.306-5.173 64.118-17.879 90.651-36.316h56.136V414.72c17.806-26.147 30.082-56.362 35.145-88.963l34.518-34.519z" />
    <path fill="#EA5810"
        d="M443.522 405.166c22.505-32.021 35.726-71.042 35.726-113.154s-13.221-81.133-35.726-113.154V129.67h-49.648c-31.737-21.869-70.195-34.683-111.651-34.683-41.457 0-79.915 12.814-111.651 34.683H120.97v49.119c-22.534 32.034-35.772 71.081-35.772 113.223 0 42.142 13.238 81.188 35.772 113.223v46.987h46.559c32.306 23.169 71.904 36.815 114.693 36.815s82.386-13.646 114.693-36.815h46.606v-47.056z" />
    <path fill="#F98F10" d="M120.666 129.365h323.161v323.161H120.666z" />
    <path fill="#F98F10" d="M282.246 67.554L505.633 290.94 282.245 514.328 58.858 290.941z" />
    <circle cx="282.224" cy="291.011" r="177.042" />
    <radialGradient id="prefix__a" cx="282.224" cy="291.011" r="149.955" gradientUnits="userSpaceOnUse" opacity="90">
        <stop offset=".006" stop-color="#f98f10" />
        <stop offset="1" stop-color="#ea5810" />
    </radialGradient>
    <circle fill="url(#prefix__a)" cx="282.223" cy="291.011" r="149.955" />
</svg>