<svg version="1.0" xmlns="http://www.w3.org/2000/svg" width="1053.333" height="1706.667" viewBox="0 0 790 1280">
    <path
        d="M374 .6c-39.2 2.6-70.3 7-98.5 14C169.2 41.2 83.1 98.2 9.7 190.7L0 202.9v14.8l112.5 84.9c61.9 46.7 112.9 85 113.4 85.2.5.2 6-6.8 12.2-15.4 32.1-44.3 60.1-68.5 90.7-78.4 20.7-6.7 47.7-8.3 65.3-3.7 15.3 4 31.5 13.2 45.2 25.7 11.6 10.6 20.2 24.5 23.2 37.3 1.9 8.1 2.1 22.4.4 29.3-3.4 14.1-14.5 31.9-29.8 47.7-18 18.7-32.5 30.2-65.8 52.1-32.5 21.4-47.9 33.8-63.2 50.6-35.3 39-54.9 83.7-62.1 142-2.9 23.3-2.1 100.6 1.5 145.5 1.5 17.9 5.3 54.6 5.8 55.1.1.1 22.5-2 49.7-4.6 27.2-2.7 72.7-7.2 101-9.9 119.6-11.8 132.3-13 132.6-13.4.2-.1-.4-5-1.3-10.7-1.2-7.7-1.6-17.8-1.7-38 0-26.6.1-27.8 2.6-37.1 4.7-17.2 11.4-29.9 22.4-42.8 2.7-3.2 13.4-12.2 23.8-20.2 24.5-18.6 64.4-49.8 72.1-56.3 46.1-38.9 78.9-77.6 100.8-118.6 45.6-85.5 51.3-200.7 14.6-292.7-17.6-44.1-43.7-83.1-80.4-119.8C621.8 47.6 547.7 13.2 451 2.4 438.3 1 386.4-.2 374 .6zM304.5 968.2c-51.7 50.7-98.4 96.5-103.8 101.7l-9.8 9.5 100.3 100.3L391.5 1280h14.2l92.9-94.7c51.1-52.2 95.3-97.3 98.1-100.3l5.2-5.6-101.7-101.7L398.4 876l-93.9 92.2z" />
    </svg>