<svg height="512pt" viewBox="-22 0 512 512" width="512pt" xmlns="http://www.w3.org/2000/svg"><g fill="#fec" stroke="#000" stroke-width="6"><path d="M184.813 256.57h18.898v16.145l-34.524 34.855-119.32-.18L15 272.86V130.866h21.59v13.32h15v-25.68h27.742v25.68h15V105.73h27.738v38.458h15v-25.68h27.743v93.402h15v-81.043h8.75l15.148 15.774v25.922h15v-31.958l-23.754-24.738h-15.144V19.391H137.07V0H79.332v19.39H36.59v27.313H0v232.414l33.5 33.176V368h152.09v-55.672l33.12-33.445V256.57h9.524v-71.507h-43.422zM15 115.867v-21.59h21.59v21.59zm36.59-40.101h27.742v27.738H51.59zM94.332 90.73V62.988h27.738V90.73zm42.738 12.774V75.766h27.743v27.738zm27.743-69.113v26.375H137.07V34.39zM94.332 15h27.738v32.988H94.332zM51.59 34.39h27.742v26.376H51.59zM15 61.704h21.59v17.574H15zM170.59 353H48.5v-30.602l122.09.188zm29.222-152.938h13.422v41.508h-13.422zm0 0"/><path d="M156.004 294.887V189.734l-31.992-31.992H27.5v15h90.3l23.204 23.203v98.942zm0 0M56.617 330.191h15v15h-15zm0 0M86.617 330.191h15v15h-15zm0 0M116.617 330.191h15v15h-15zm0 0M146.617 330.191h15v15h-15zm0 0M430.676 46.703V19.391h-42.742V0h-57.739v19.39h-42.742v96.477H272.31l-23.754 24.738v31.958h15V146.64l15.144-15.774h8.754v81.043h15v-93.402h27.742v25.68h15V105.73h27.739v38.457h15v-25.68h27.742v25.68h15v-13.32h21.59v141.996l-34.868 34.528-119.324.183-34.52-34.86V256.57h18.9v-71.507H239.03v71.507h9.524v22.313l33.12 33.445V368h152.087v-55.707l33.504-33.176V46.703zM254.03 200.063h13.422v41.507h-13.422zM418.766 353h-122.09v-30.414l122.09-.188zm-3.09-318.61v26.376h-27.742V34.39zM345.196 15h27.738v32.988h-27.739zm-42.743 19.39h27.742v26.376h-27.742zm0 41.376h27.742v27.738h-27.742zm42.742 14.964V62.988h27.739V90.73zm42.739 12.774V75.766h27.742v27.738zm42.742 12.363v-21.59h21.59v21.59zm0-36.59V61.703h21.59v17.574zm0 0"/><path d="M349.465 172.742h90.3v-15h-96.511l-31.992 31.992v105.153h15v-98.942zm0 0M395.648 330.191h15v15h-15zm0 0M365.648 330.191h15v15h-15zm0 0M335.648 330.191h15v15h-15zm0 0M305.648 330.191h15v15h-15zm0 0M165.93 382.355l23.37 91.586V497H29.79v-16.5H176.8v-15H31.946l21.22-83.145-14.536-3.71-23.84 93.414V512h189.512v-39.941l-23.84-93.414zm0 0M414.102 382.355l23.375 91.586V497H277.965v-16.5h147.012v-15h-144.86l21.223-83.145-14.535-3.71-23.84 93.414V512h189.512v-39.941l-23.84-93.414zm0 0"/><path d="M159.352 457.688l-7.637-29.93 14.531-3.707 7.64 29.926zm-10.11-39.622l-3.71-14.53 14.53-3.712 3.711 14.535zm-6.183-24.222l-3.711-14.535 14.535-3.707 3.71 14.535zm0 0M131.004 289.887h-15v-36.692h15zm0-46.692h-15v-15h15zm0-25h-15v-15h15zm0 0M407.527 457.688l-7.636-29.93 14.53-3.707 7.638 29.926zm-10.113-39.622l-3.707-14.53 14.531-3.712 3.711 14.535zm-6.18-24.222l-3.71-14.535 14.535-3.707 3.71 14.535zm0 0M442.266 265.563h-15v-25.32h15zm0-35.32h-15v-15h15zm0-25h-15v-15h15zm0 0"/></g></svg>