<svg xmlns="http://www.w3.org/2000/svg" viewBox="0 0 512 512"><path d="M403.33 322.848l-79.729-13.288c-21.788-3.631-37.602-22.299-37.602-44.388v-34.589c8.041-12.442 30-50.543 30-95.583 0-44.942-21.856-82.302-30-94.663V15c0-8.284-6.716-15-15-15h-180a15 15 0 00-12.032 6.042C77.622 7.85 46 50.945 46 105c0 31.746 11.147 81.678 18.961 112.522a105.017 105.017 0 01-7.861 72.736c-7.262 14.525-11.101 30.784-11.101 47.021L46 497c0 8.284 6.715 15 15 15h120c5.682 0 10.875-3.21 13.417-8.292L211 470.541l16.583 33.167A15 15 0 00241 512h210c8.284 0 15-6.716 15-15V396.827c.001-36.814-26.355-67.927-62.67-73.979zM285.999 135.001c.001 29.99-12.493 57.122-20.526 71.465l-39.474-19.737V84.271l39.619-19.809c8.004 13.981 20.381 40.464 20.381 70.539zm-210 202.28a75.536 75.536 0 017.934-33.606 135.03 135.03 0 0012.144-84.056C120.145 232.245 136 257.354 136 286v136H75.996l.003-84.719zM171.729 482H76v-30h110.729l-15 30zm-5.73-60V286c0-47.838-32.284-89.354-78.102-101.496C80.26 150.567 76 122.356 76 105c0-33.443 15.552-62.782 23.064-75h156.935v5.729l-51.708 25.854A15 15 0 00195.999 75v121c0 5.682 3.21 10.875 8.292 13.417l51.708 25.854v29.902c0 36.814 26.356 67.927 62.67 73.979l6.392 1.065c-5.888 10.838-9.062 23.089-9.062 35.783v46h-150zm84.271 60l-15-30h200.729v30H250.27zm185.731-60h-90v-46a44.835 44.835 0 0111.777-30.331l40.622 6.77c21.787 3.632 37.601 22.299 37.601 44.388V422z" fill="#fec" stroke="#000" stroke-width="6"/></svg>