<svg xmlns="http://www.w3.org/2000/svg" viewBox="0 0 512.002 512.002"><g fill="#fec" stroke="#000" stroke-width="6"><path d="M317.876 43.648c-4.489-1.434-9.284 1.067-10.709 5.564-1.425 4.489 1.067 9.284 5.555 10.709 78.362 24.806 131.012 96.742 131.012 179.012v254.993c-20.804-2.202-73.267-7.031-135.595-7.492l15.565-147.84 72.294-32.128a8.51 8.51 0 005.001-6.741l8.533-68.267a8.535 8.535 0 00-2.645-7.296c-2.005-1.877-4.77-2.645-7.475-2.133-.725.145-73.062 14.336-126.754 16.913a8.572 8.572 0 00-5.948 2.833 8.505 8.505 0 00-2.159 6.229l8.388 134.229-13.678 27.367h-6.519l-13.679-27.366 8.388-134.229c.145-2.287-.631-4.531-2.159-6.229s-3.669-2.722-5.948-2.833c-53.666-2.577-126.029-16.768-126.754-16.913a8.546 8.546 0 00-7.475 2.133 8.507 8.507 0 00-2.645 7.296l8.533 68.267a8.504 8.504 0 005.001 6.741l72.294 32.128 15.565 147.84c-62.327.461-114.79 5.291-135.595 7.492V238.933c0-82.833 53.12-154.931 132.19-179.379 4.506-1.399 7.023-6.178 5.632-10.675-1.399-4.506-6.212-7.031-10.675-5.632C109.151 69.922 51.201 148.565 51.201 238.933v264.533a8.54 8.54 0 002.884 6.4 8.556 8.556 0 005.649 2.133c.35 0 .708-.017 1.058-.068.683-.085 68.71-8.465 152.542-8.465a8.515 8.515 0 006.34-2.825 8.554 8.554 0 002.15-6.605l-1.707-16.171H268.8c4.71 0 8.533-3.823 8.533-8.533s-3.823-8.533-8.533-8.533h-50.483l-13.559-128.888a8.545 8.545 0 00-5.026-6.912l-72.397-32.179-6.485-51.874c21.368 3.891 68.318 11.844 109.039 14.541l-8.004 127.974a8.585 8.585 0 00.879 4.352l17.067 34.133a8.542 8.542 0 007.637 4.719h17.067a8.541 8.541 0 007.637-4.719l17.067-34.133a8.585 8.585 0 00.879-4.352l-8.004-127.974c40.713-2.697 87.671-10.65 109.039-14.541l-6.485 51.874-72.397 32.179a8.545 8.545 0 00-5.026 6.912l-17.067 162.125a8.559 8.559 0 002.15 6.605 8.515 8.515 0 006.34 2.825c83.763 0 151.859 8.38 152.542 8.465 2.458.316 4.872-.444 6.707-2.065s2.884-3.951 2.884-6.4V238.933c0-89.745-57.438-168.226-142.925-195.285z"/><path d="M230.401 110.933a8.536 8.536 0 008.533 8.533h34.133a8.536 8.536 0 008.533-8.533c0-32.444 19.576-96.35 19.772-96.99a8.534 8.534 0 00-.922-7.031 8.485 8.485 0 00-5.914-3.908A250.366 250.366 0 00256.059.009c-.017 0-.043-.009-.06-.009s-.043.009-.06.009a250.492 250.492 0 00-38.477 2.995 8.517 8.517 0 00-5.922 3.908 8.565 8.565 0 00-.913 7.031c.199.64 19.774 64.547 19.774 96.99zm17.067-93.619v25.353c0 4.71 3.823 8.533 8.533 8.533s8.533-3.823 8.533-8.533V17.314c5.897.213 11.802.572 17.681 1.246-5.094 17.809-15.386 56.363-17.348 83.84h-17.732c-1.971-27.477-12.254-66.031-17.348-83.84 5.879-.674 11.784-1.033 17.681-1.246z"/></g></svg>