<svg height="512pt" viewBox="-46 0 512 512" width="512pt" xmlns="http://www.w3.org/2000/svg"><g fill="#fec" stroke="#000" stroke-width="6"><path d="M210 452c74.465 0 135-61.426 135-136 0-74.465-60.438-136-135-136-74.465 0-135 61.426-135 136 0 74.465 60.438 136 135 136zm0-242c57.898 0 105 47.55 105 106s-47.102 106-105 106-105-47.55-105-106 47.102-106 105-106zm0 0"/><path d="M210 512c115.793 0 210-94.652 210-211 0-60.684-26.184-120.645-75.242-161.977 0 0 28.535-57.074 28.547-57.093 2.687-6.68 2.757-11.953-2.59-17.418-.04-.04-.07-.082-.11-.117l-60-60A14.98 14.98 0 00300 0H120a14.98 14.98 0 00-10.605 4.395l-60 60c-5.098 5.097-5.477 10.972-2.7 17.535.012.02.024.043.032.062l28.515 57.031C26.176 180.36 0 240.328 0 301c0 116.348 94.207 211 210 211zM99.27 120L84.262 90h251.457l-14.989 30zm131.46-90l15 30h-71.46l15-30zm93.055 30H279.27l-15-30h29.515zm-197.57-30h29.515l-15 30H96.215zM110.5 150h199c49.754 33.137 80.5 90.586 80.5 151 0 99.805-80.746 181-180 181S30 400.805 30 301c0-60.414 30.746-117.863 80.5-151zm0 0"/></g></svg>